# xmcd CD database file
#
# Track frame offsets:
#	182
#	10200
#	20472
#	38305
#	49935
#	63445
#	74392
#	87510
#	99797
#	112885
#	121065
#	130330
#	140232
#	149955
#	159712
#	173040
#	184732
#	198135
#	209152
#	222855
#
# Disc length: 3106 seconds
#
# Revision: 0
# Processed by: cddbd v1.5.1PL0 Copyright (c) Steve Scherf et al.
# Submitted via: CDex 1.51
#
DISCID=270c2014
DTITLE=Various Artist - Country's Clasics Vol. 2
DYEAR=1990
DGENRE=Country
TTITLE0=Johnny Cash - Born to loose
TTITLE1=Dave Dudley - Seven lonely days
TTITLE2=Kenny Vernon - Polk salad annie
TTITLE3=Willie Nelson - December days
TTITLE4=Patti Page - tennessee Waltz
TTITLE5=Dolly Parton - Honky tonk angels
TTITLE6=Ferlin Husky - Country music is here to stay
TTITLE7=Patsy Cline - Crazy
TTITLE8=Freddie Fender - Silver Wings
TTITLE9=Roger Miller - Dear heart
TTITLE10=Frankie Laine Rawhide
TTITLE11=Willie Nelson - Let's pretend
TTITLE12=Kenny Rogers - Once again she's all alone
TTITLE13=Barbara Mandrell - Release me
TTITLE14=Frankie Laine - Wheel off fortune
TTITLE15=Donna Farga - The happiest girl in the whole USA
TTITLE16=Don Williams - Ruby tuesday
TTITLE17=Faron Young - Wind me up
TTITLE18=Willie Nelson - You'll always have someone
TTITLE19=Carl Perkins - Daddy sang bass
EXTD=YEAR: 1990
EXTT0=
EXTT1=
EXTT2=
EXTT3=
EXTT4=
EXTT5=
EXTT6=
EXTT7=
EXTT8=
EXTT9=
EXTT10=
EXTT11=
EXTT12=
EXTT13=
EXTT14=
EXTT15=
EXTT16=
EXTT17=
EXTT18=
EXTT19=
PLAYORDER=
